<?xml version="1.0" standalone="no"?>
<!DOCTYPE svg PUBLIC "-//W3C//DTD SVG 20010904//EN"
 "http://www.w3.org/TR/2001/REC-SVG-20010904/DTD/svg10.dtd">
<svg version="1.0" xmlns="http://www.w3.org/2000/svg"
 width="480.000000pt" height="480.000000pt" viewBox="0 0 480.000000 480.000000"
 preserveAspectRatio="xMidYMid meet">
<metadata>
Created by potrace 1.14, written by Peter Selinger 2001-2017
</metadata>
<g transform="translate(0.000000,480.000000) scale(0.100000,-0.100000)"
fill="#000000" stroke="none">
<path d="M1036 4705 c-6 -5 -20 -11 -30 -13 -10 -2 -35 -12 -55 -23 -20 -10
-41 -19 -48 -19 -7 0 -13 -4 -13 -10 0 -5 -7 -10 -15 -10 -17 0 -57 -20 -67
-34 -3 -5 -14 -11 -23 -12 -10 -1 -27 -11 -39 -21 -11 -11 -38 -30 -58 -43
-20 -13 -34 -28 -32 -32 3 -4 -7 -10 -21 -14 -13 -3 -22 -10 -19 -15 3 -5 1
-9 -4 -9 -16 0 -182 -171 -182 -188 0 -5 -9 -17 -20 -27 -11 -10 -17 -22 -14
-26 3 -5 0 -9 -6 -9 -8 0 -22 -24 -35 -60 -1 -3 -9 -22 -18 -42 -10 -21 -17
-45 -17 -53 0 -9 -4 -14 -8 -11 -5 3 -9 0 -9 -7 -2 -23 -19 -126 -23 -137 -1
-3 -1 -9 0 -15 1 -5 4 -30 7 -55 3 -25 9 -50 15 -57 5 -7 7 -17 3 -23 -3 -5
-2 -10 2 -10 5 0 17 -17 28 -37 22 -43 135 -157 135 -138 0 3 10 -1 23 -10 13
-8 27 -12 30 -8 4 3 7 2 7 -4 0 -12 87 -43 118 -43 11 0 26 -8 33 -17 13 -16
12 -17 -4 -4 -15 12 -17 12 -12 -1 3 -8 -6 -25 -20 -38 -14 -13 -25 -30 -25
-37 0 -8 -4 -11 -10 -8 -5 3 -10 0 -10 -9 0 -8 -4 -16 -9 -18 -5 -1 -11 -10
-13 -18 -2 -8 -6 -17 -10 -20 -4 -3 -18 -36 -32 -72 -17 -48 -21 -69 -13 -77
7 -7 7 -11 1 -11 -7 0 -10 -42 -8 -112 1 -62 3 -113 4 -113 1 0 3 -8 6 -17 2
-10 6 -26 8 -35 3 -10 5 -18 6 -18 1 0 3 -8 5 -19 2 -10 13 -28 24 -40 12 -12
21 -28 21 -35 0 -7 5 -9 12 -5 7 4 8 3 4 -5 -7 -11 -75 -45 -87 -43 -10 2 -94
-81 -91 -90 1 -4 -2 -8 -6 -8 -15 0 -50 -74 -53 -110 -2 -19 -8 -41 -13 -49
-9 -12 -8 -13 4 -6 12 7 13 6 3 -7 -7 -8 -10 -18 -6 -22 16 -15 10 -62 -10
-78 -11 -10 -17 -18 -13 -18 4 0 1 -7 -8 -15 -8 -8 -19 -15 -25 -15 -6 0 -11
-7 -11 -15 0 -7 -6 -18 -12 -22 -18 -11 -49 -69 -41 -77 3 -3 1 -6 -6 -6 -7 0
-17 -13 -22 -30 -6 -16 -15 -30 -21 -30 -5 0 -7 -4 -3 -9 3 -5 -1 -16 -9 -24
-8 -8 -12 -17 -9 -21 4 -3 1 -6 -5 -6 -7 0 -11 -3 -11 -7 1 -5 0 -11 -1 -15
-1 -5 -3 -11 -5 -15 -5 -19 -17 -49 -26 -67 -8 -14 -8 -16 3 -10 10 6 11 5 2
-7 -15 -18 -67 -181 -88 -274 -15 -67 -17 -257 -3 -311 23 -89 46 -129 117
-204 103 -107 184 -147 314 -154 6 -1 18 -16 29 -34 16 -27 18 -40 10 -86 -18
-103 -2 -270 33 -336 52 -100 215 -219 374 -274 25 -8 88 -31 140 -51 88 -33
228 -69 325 -81 22 -3 51 -8 65 -10 102 -15 194 -19 470 -19 173 0 340 4 370
8 30 4 88 12 128 18 40 6 105 22 145 35 40 14 142 45 227 70 160 47 366 129
530 209 52 26 133 63 180 82 346 143 472 230 685 477 33 38 76 87 96 109 20
22 70 104 112 181 88 166 130 306 172 576 3 19 10 58 15 85 5 28 12 66 14 85
3 19 8 46 11 60 5 24 11 59 19 110 2 14 9 52 15 85 6 33 13 76 16 95 3 19 10
60 15 90 5 30 12 73 15 95 3 22 14 87 24 145 19 110 19 285 0 300 -4 3 -8 19
-10 35 -2 17 -9 39 -16 50 -7 11 -13 27 -13 36 0 23 -87 191 -106 206 -9 6
-13 16 -9 22 3 6 0 11 -8 11 -7 0 -20 11 -27 25 -7 14 -19 25 -26 25 -6 0 -15
7 -18 16 -3 9 -11 12 -18 8 -9 -5 -10 -4 -3 3 6 6 43 20 83 33 41 13 76 29 79
37 3 7 10 13 15 13 24 0 118 127 118 159 0 5 5 22 12 38 15 37 13 30 23 98 10
69 13 175 6 189 -4 10 -10 57 -12 104 -1 12 -5 22 -10 22 -5 0 -8 3 -7 8 0 4
-1 14 -4 22 -3 8 -13 41 -23 73 -10 31 -22 57 -27 57 -4 0 -8 6 -8 14 0 17
-40 89 -52 94 -4 2 -8 10 -8 18 0 8 -4 14 -10 14 -5 0 -10 6 -10 14 0 8 -9 21
-20 29 -11 8 -17 16 -14 19 3 4 -8 14 -25 24 -17 10 -31 24 -31 31 0 8 -8 17
-17 20 -9 4 -25 14 -35 22 -10 9 -26 23 -36 32 -21 17 -53 33 -64 31 -5 -1 -8
3 -8 8 0 6 -11 10 -24 10 -14 0 -31 7 -40 15 -13 13 -16 13 -30 0 -8 -8 -19
-15 -25 -15 -14 0 -14 -27 -1 -35 12 -7 13 -48 3 -59 -5 -4 -8 -11 -9 -14 -1
-11 -15 -45 -25 -64 -5 -10 -9 -24 -9 -31 0 -8 -11 -35 -24 -60 -14 -25 -22
-48 -19 -51 4 -3 1 -6 -5 -6 -7 0 -12 -6 -12 -14 0 -14 -25 -67 -45 -94 -30
-41 -122 -122 -156 -137 -21 -10 -39 -22 -39 -27 0 -4 -7 -8 -15 -8 -8 0 -15
-5 -15 -10 0 -6 -3 -9 -7 -8 -5 1 -39 -13 -77 -31 -38 -18 -76 -34 -85 -36 -9
-2 -31 -10 -49 -17 -28 -11 -37 -10 -60 3 -51 29 -67 37 -107 53 -22 9 -53 23
-68 31 -16 8 -36 15 -46 15 -9 0 -27 7 -39 16 -12 8 -22 13 -22 10 0 -2 -15 0
-32 5 -29 9 -63 17 -93 23 -5 1 -16 5 -22 9 -7 5 -13 5 -13 1 0 -3 -6 -1 -13
5 -8 6 -30 12 -50 13 -20 2 -37 6 -37 10 0 3 -15 9 -32 13 -18 3 -53 13 -78
20 -25 8 -61 15 -80 16 -19 2 -39 6 -45 10 -12 8 -125 8 -125 -1 0 -3 -16 -7
-36 -8 -20 -2 -46 -8 -58 -14 -11 -6 -34 -15 -51 -19 -16 -4 -54 -16 -82 -27
-29 -11 -53 -17 -53 -14 0 4 -4 2 -8 -4 -4 -6 -31 -19 -59 -28 -29 -10 -53
-22 -53 -27 0 -5 -9 -9 -20 -9 -11 0 -28 -4 -38 -9 -79 -43 -260 -101 -311
-101 -18 0 -34 6 -37 13 -2 7 -15 14 -28 15 -12 1 -56 13 -97 27 -41 15 -85
27 -99 28 -14 1 -29 5 -35 8 -12 7 -43 5 -140 -6 -38 -5 -73 -8 -77 -7 -5 1
-8 -2 -8 -8 0 -5 -16 -12 -35 -16 -19 -3 -35 -10 -35 -15 0 -5 -11 -9 -25 -9
-14 0 -28 -7 -31 -15 -4 -8 -10 -13 -14 -10 -4 2 -15 -4 -25 -15 -10 -11 -23
-20 -29 -20 -11 0 -36 66 -36 95 0 8 -4 15 -10 15 -5 0 -7 7 -4 15 4 8 2 15
-2 15 -5 0 -11 17 -12 38 -2 20 -5 48 -7 62 -2 14 -3 38 -4 53 -1 19 -5 26
-13 21 -7 -5 -8 -3 -3 7 12 19 14 51 5 69 -5 8 -4 22 1 32 7 12 6 18 -2 18 -8
0 -8 4 -1 13 6 6 9 29 8 50 -1 20 1 37 5 37 3 0 7 21 8 47 1 26 5 49 9 53 4 3
8 14 10 25 1 11 5 34 8 50 5 26 2 32 -24 43 -33 14 -89 13 -106 -3z m-283
-1302 c-9 -3 -10 -10 -3 -23 7 -14 4 -24 -17 -44 -14 -14 -31 -26 -37 -26 -6
0 4 12 22 26 26 20 30 29 22 40 -13 15 -5 34 13 33 9 0 9 -2 0 -6z m-32 -37
c14 8 11 -2 -4 -14 -10 -8 -13 -6 -14 11 0 12 1 16 4 9 3 -6 9 -10 14 -6z m-9
-83 c-14 -12 -14 -14 -1 -10 9 3 16 -1 16 -8 0 -10 -5 -11 -19 -4 -10 5 -18
14 -18 19 0 17 -15 11 -28 -11 -12 -19 -11 -20 6 -15 12 4 28 -1 43 -14 21
-19 22 -20 3 -11 -21 10 -34 6 -34 -10 0 -5 6 -6 13 -3 8 3 20 -3 28 -12 9
-12 10 -15 2 -10 -7 4 -13 2 -13 -3 0 -6 -5 -11 -11 -11 -8 0 -8 5 1 15 7 8 8
15 3 15 -11 0 -33 -21 -33 -31 0 -12 38 -17 48 -7 7 7 10 5 8 -8 -2 -11 4 -28
13 -39 15 -18 15 -19 -2 -6 -27 21 -30 7 -3 -16 13 -12 26 -19 28 -17 3 2 5
-3 5 -11 0 -20 -1 -20 -35 15 -17 16 -29 37 -28 46 0 9 -4 19 -10 21 -7 2 -10
-6 -9 -21 4 -33 -20 -41 -50 -18 -22 18 -23 20 -7 37 16 17 16 17 -3 11 -19
-6 -19 -5 -2 8 19 15 23 31 5 20 -8 -5 -8 -1 2 12 8 10 15 20 16 22 1 2 2 -12
1 -30 0 -18 4 -42 8 -53 5 -16 5 -17 -4 -5 -5 8 -13 11 -17 7 -4 -4 0 -15 9
-24 19 -19 28 -14 27 13 -3 79 -7 97 -23 109 -16 11 -16 13 -2 19 9 3 14 10
11 15 -7 11 10 18 46 18 25 0 26 -2 10 -14z m-30 -192 c15 8 24 7 39 -7 11
-10 17 -24 14 -32 -3 -9 1 -12 14 -7 11 3 23 0 28 -7 10 -16 11 -68 1 -61 -5
2 -8 10 -8 17 0 25 -27 39 -49 26 -14 -7 -21 -7 -21 0 0 5 8 10 18 10 16 1 16
1 0 11 -10 5 -18 15 -18 22 0 7 4 6 10 -3 5 -8 12 -11 16 -7 4 4 0 15 -9 24
-20 20 -28 14 -29 -23 -1 -55 2 -63 22 -61 11 1 20 5 20 9 0 4 5 8 10 8 6 0 3
-11 -5 -24 -15 -23 -15 -25 2 -36 17 -11 17 -11 0 -6 -12 4 -17 2 -14 -6 2 -7
13 -12 23 -11 10 1 13 0 6 -3 -6 -3 -10 -10 -6 -15 3 -5 0 -9 -5 -9 -6 0 -11
4 -11 9 0 12 -38 5 -56 -10 -10 -8 -14 -8 -14 0 0 6 4 11 9 11 5 0 8 8 6 18
-2 9 -4 22 -4 29 -1 6 -10 11 -21 10 -11 -1 -18 -6 -16 -12 2 -5 9 -9 15 -7 6
1 11 -2 11 -8 0 -14 -16 -12 -29 4 -6 7 -8 22 -4 31 4 11 2 16 -3 12 -5 -3
-10 3 -10 13 0 10 3 17 7 14 4 -2 12 3 19 11 10 12 10 18 0 30 -6 8 -9 19 -6
24 4 5 2 12 -3 15 -5 4 -12 -2 -14 -11 -3 -10 -4 -6 -4 9 l1 26 24 -19 c19
-14 28 -16 44 -8z m-54 -49 c2 -7 -1 -12 -8 -12 -6 0 -9 4 -6 9 4 5 1 12 -4
14 -6 3 -5 4 2 3 6 -1 14 -8 16 -14z m125 -67 c-3 -9 -8 -14 -10 -11 -3 3 -2
9 2 15 9 16 15 13 8 -4z m14 -27 c-3 -8 -6 -5 -6 6 -1 11 2 17 5 13 3 -3 4
-12 1 -19z m-137 -28 c0 -5 -2 -10 -4 -10 -3 0 -8 5 -11 10 -3 6 -1 10 4 10 6
0 11 -4 11 -10z m26 -42 l6 -21 17 22 c11 15 23 20 34 15 14 -5 15 -9 6 -21
-10 -11 -9 -18 6 -31 17 -16 17 -16 12 1 -7 20 1 47 14 47 6 0 6 -7 1 -17 -4
-10 -7 -28 -7 -40 2 -14 -2 -20 -9 -16 -18 12 -40 13 -52 2 -8 -6 -16 -4 -25
8 -8 9 -9 14 -2 10 6 -4 14 -3 18 2 3 6 11 8 18 5 7 -2 13 6 13 21 1 14 -2 25
-7 25 -5 0 -9 -7 -9 -15 0 -8 -3 -15 -7 -16 -5 0 -16 -2 -26 -4 -9 -2 -14 1
-11 6 3 6 0 16 -6 24 -8 10 -9 15 -2 15 6 0 14 -10 18 -22z m71 -88 c0 -9 -6
-17 -13 -17 -7 0 -10 6 -7 14 3 7 0 13 -6 13 -6 0 -11 -4 -11 -10 0 -5 -5 -10
-11 -10 -8 0 -8 4 0 14 16 19 50 16 48 -4z"/>
<path d="M670 3239 c0 -5 5 -7 10 -4 6 3 10 8 10 11 0 2 -4 4 -10 4 -5 0 -10
-5 -10 -11z"/>
<path d="M640 3068 c0 -4 8 -11 17 -17 16 -8 15 -11 -5 -28 -16 -12 -21 -24
-17 -36 4 -9 11 -15 15 -12 17 11 38 -7 35 -30 -1 -17 3 -23 14 -22 9 0 17 9
17 18 0 10 -4 15 -8 13 -4 -3 -8 0 -8 5 0 6 5 11 10 11 6 0 10 4 10 8 0 7 -18
11 -63 12 -9 1 -15 6 -11 11 3 6 12 8 18 6 9 -4 13 6 13 32 0 29 -4 37 -19 37
-10 0 -18 -4 -18 -8z"/>
<path d="M760 3025 c7 -9 15 -13 17 -11 7 7 -7 26 -19 26 -6 0 -6 -6 2 -15z"/>
</g>
</svg>
